<?xml version="1.0" standalone="no"?>
<!DOCTYPE svg PUBLIC "-//W3C//DTD SVG 20010904//EN"
 "http://www.w3.org/TR/2001/REC-SVG-20010904/DTD/svg10.dtd">
<svg version="1.0" xmlns="http://www.w3.org/2000/svg"
 width="512.000000pt" height="512.000000pt" viewBox="0 0 512.000000 512.000000"
 preserveAspectRatio="xMidYMid meet">

<g transform="translate(0.000000,512.000000) scale(0.100000,-0.100000)"
fill="#ff7809" stroke="none">
<path d="M1700 4360 c-76 -22 -270 -142 -400 -247 -89 -72 -257 -243 -321
-328 -312 -407 -458 -916 -409 -1416 45 -455 237 -869 554 -1198 708 -733
1863 -815 2666 -188 86 67 268 245 286 279 32 62 8 142 -59 192 -26 19 -47 22
-245 28 -119 3 -250 11 -289 17 -499 75 -940 321 -1261 706 -430 514 -572
1231 -372 1867 36 113 37 152 7 209 -33 62 -100 96 -157 79z"/>
<path d="M3051 3458 c-25 -17 -55 -65 -125 -198 l-91 -175 -157 -77 c-169 -82
-193 -103 -193 -168 0 -65 24 -86 193 -168 l157 -77 91 -175 c104 -198 129
-226 198 -217 60 8 87 43 157 209 35 83 75 162 89 175 14 14 88 52 165 85 171
73 200 98 200 168 0 70 -29 95 -200 168 -77 33 -151 71 -165 85 -14 13 -54 92
-89 175 -39 91 -75 162 -91 177 -40 38 -96 43 -139 13z"/>
</g>
</svg>
