<?xml version="1.0" standalone="no"?>
<!DOCTYPE svg PUBLIC "-//W3C//DTD SVG 20010904//EN"
 "http://www.w3.org/TR/2001/REC-SVG-20010904/DTD/svg10.dtd">
<svg version="1.0" xmlns="http://www.w3.org/2000/svg"
 width="512.000000pt" height="512.000000pt" viewBox="0 0 512.000000 512.000000"
 preserveAspectRatio="xMidYMid meet">

<g transform="translate(0.000000,512.000000) scale(0.100000,-0.100000)"
fill="#000000" stroke="none">
<path d="M2425 3440 c-190 -30 -380 -132 -513 -275 -67 -72 -171 -230 -159
-242 4 -3 39 0 79 6 110 19 349 25 467 12 413 -45 793 -220 1083 -499 26 -25
51 -42 55 -38 4 4 8 71 7 149 0 114 -5 159 -23 227 -84 316 -328 560 -642 640
-96 25 -263 34 -354 20z"/>
<path d="M1855 2591 c-55 -10 -120 -24 -143 -32 l-44 -13 7 -65 c32 -314 218
-583 498 -719 131 -64 228 -86 387 -86 196 0 335 42 490 145 89 60 230 198
230 226 0 22 -172 195 -261 262 -195 148 -425 246 -669 286 -129 20 -366 19
-495 -4z"/>
</g>
</svg>
